Coordinates
version=1
nRows=8
nColumns=40
inDegrees=yes

Units are S.I. units (second, meters, Newtons, ...)
Angles are in degrees.

endheader
time	pelvis_tilt	pelvis_list	pelvis_rotation	pelvis_tx	pelvis_ty	pelvis_tz	hip_flexion_r	hip_adduction_r	hip_rotation_r	knee_angle_r	knee_angle_r_beta	ankle_angle_r	subtalar_angle_r	mtp_angle_r	hip_flexion_l	hip_adduction_l	hip_rotation_l	knee_angle_l	knee_angle_l_beta	ankle_angle_l	subtalar_angle_l	mtp_angle_l	lumbar_extension	lumbar_bending	lumbar_rotation	arm_flex_r	arm_add_r	arm_rot_r	elbow_flex_r	pro_sup_r	wrist_flex_r	wrist_dev_r	arm_flex_l	arm_add_l	arm_rot_l	elbow_flex_l	pro_sup_l	wrist_flex_l	wrist_dev_l
     36.03000000	     -7.65581264	     -7.84669547	      0.52984868	      1.01871302	      0.91333464	      0.52919145	      0.48004618	      7.21777211	    -16.28903423	      7.96612540	      7.96612540	     16.90088057	     10.79874734	     -3.15923201	     36.19200601	    -13.83800059	     -4.94896144	     18.73262213	     18.73262213	      2.98518531	     -7.96024681	     11.18775178	    -12.57899901	      8.80642945	      3.34809657	     51.72296459	    -15.40311899	      1.85866242	    100.80074848	     44.01172253	      0.00000000	      0.00000000	    -17.13215120	     -7.47719048	     -4.80091148	     26.41719566	     46.30625611	      0.00000000	      0.00000000
     36.04157143	     -7.86430212	     -7.83360099	      0.32383291	      1.02031522	      0.91177922	      0.52732824	      0.19961192	      6.98979322	    -16.10864461	      8.38224358	      8.38224358	     17.64134756	     10.86508074	     -2.51783014	     35.74063175	    -13.60534175	     -4.96186835	     18.78992183	     18.78992183	      1.28643584	     -9.70820390	      9.17778450	    -12.25830998	      8.74158659	      3.69085841	     51.55447284	    -15.51807205	      1.42472772	    104.23618551	     43.96687092	      0.00000000	      0.00000000	    -18.17646889	     -7.60814041	     -4.08652242	     27.78340411	     46.14056324	      0.00000000	      0.00000000
     36.05314286	     -8.03263970	     -7.83226394	      0.11479042	      1.02188696	      0.91037034	      0.52538759	     -0.08540596	      6.76139180	    -15.90588386	      8.85173556	      8.85173556	     18.33385071	     10.86495876	     -1.82838740	     35.42140119	    -13.47058867	     -4.95574848	     19.21927078	     19.21927078	     -0.35128493	    -11.15795740	      6.62698955	    -11.99531635	      8.73086657	      3.97672333	     51.60822689	    -15.50087622	      0.97212492	    106.97450914	     43.98085942	      0.00000000	      0.00000000	    -18.95700686	     -7.84527080	     -2.56303355	     28.66767706	     45.86422073	      0.00000000	      0.00000000
     36.06471429	     -8.06451255	     -7.78675149	      0.01207666	      1.02337172	      0.90933153	      0.52321611	     -0.41588536	      6.44769149	    -15.68927065	      9.46366604	      9.46366604	     18.72472888	     10.66680662	     -1.94037056	     35.26339294	    -13.32018385	     -4.84305851	     20.25584354	     20.25584354	     -0.61952511	    -12.03959811	      6.36415544	    -11.86605292	      8.69954148	      3.53997570	     51.88875072	    -14.83353979	      1.08347146	    108.59375274	     43.93923926	      0.00000000	      0.00000000	    -19.44019186	     -7.65088772	     -2.33175851	     28.58383666	     45.81956000	      0.00000000	      0.00000000
     36.07628571	     -8.20550370	     -7.61902613	     -0.10217293	      1.02469856	      0.90848261	      0.52089784	     -0.50623453	      5.95926129	    -15.45297392	     10.28592376	     10.28592376	     19.17326312	     10.37177972	     -1.81146691	     35.13067690	    -12.98311271	     -4.43919889	     21.09811167	     21.09811167	     -1.16560908	    -13.37028468	      5.58490212	    -11.72024107	      8.48335577	      3.79653123	     51.37381684	    -15.07723697	      0.59458029	    111.80810333	     43.90388743	      0.00000000	      0.00000000	    -19.74176464	     -7.76713764	     -1.63404298	     29.32533899	     45.70502519	      0.00000000	      0.00000000
     36.08785714	     -8.27543139	     -7.49762189	     -0.13189054	      1.02596974	      0.90793104	      0.51839084	     -0.65317569	      5.50543322	    -15.32220789	     11.11164153	     11.11164153	     19.42583794	     10.10566039	     -1.94247301	     35.16680018	    -12.72855972	     -4.05027209	     22.34541920	     22.34541920	     -1.00734275	    -14.12646343	      5.28226430	    -11.62415149	      8.37208093	      3.39710517	     51.25323104	    -14.61733084	      0.58738605	    113.53349929	     43.86497628	      0.00000000	      0.00000000	    -19.89767933	     -7.64483468	     -1.36000450	     29.34321512	     45.66211880	      0.00000000	      0.00000000
     36.09942857	     -8.30506532	     -7.24571703	     -0.13452513	      1.02718306	      0.90785251	      0.51563137	     -0.75914246	      4.86186127	    -15.24560835	     12.07790493	     12.07790493	     19.61750248	      9.88021455	     -2.10339891	     35.10695969	    -12.29225363	     -3.58734062	     23.50991407	     23.50991407	     -0.46399417	    -14.91696517	      5.66421884	    -11.64800404	      8.08986942	      3.72782808	     50.31822911	    -15.14949245	     -0.10312309	    116.51603210	     43.84259029	      0.00000000	      0.00000000	    -19.63313126	     -7.84308665	     -0.59185757	     29.74001942	     45.55783111	      0.00000000	      0.00000000
     36.11100000	     -8.16594169	     -7.03910914	     -0.07140633	      1.02851929	      0.90826507	      0.51266274	     -1.15356371	      4.28777380	    -15.18566581	     12.82597786	     12.82597786	     19.60952759	      9.68772308	     -2.23152068	     34.87947409	    -11.91164353	     -3.22685044	     24.66725628	     24.66725628	      0.14804893	    -15.46863337	      5.42192783	    -11.78094841	      7.88627324	      3.25204846	     49.81021932	    -14.94703235	     -0.05970861	    117.29963960	     43.82051527	      0.00000000	      0.00000000	    -19.44189131	     -7.76030522	     -0.46570389	     29.77561839	     45.54334592	      0.00000000	      0.00000000
